<svg xmlns="http://www.w3.org/2000/svg" xmlns:xlink="http://www.w3.org/1999/xlink" viewBox="0 0 3500 3500" width="3500" height="3500" preserveAspectRatio="xMidYMid meet" style="width: 100%; height: 100%; transform: translate3d(0px, 0px, 0px); content-visibility: visible;" id="Loading"><defs><clipPath id="__lottie_element_2"><rect width="3500" height="3500" x="0" y="0"/></clipPath></defs><g clip-path="url(#__lottie_element_2)"><g transform="matrix(1,0,0,1,706,1090.775146484375)" opacity="1" style="display: block;"><g opacity="1" transform="matrix(1,0,0,1,-118,-142)"><path fill="rgb(34,34,34)" fill-opacity="1" d=" M0,-240 C132.54800415039062,-240 240,-132.54800415039062 240,0 C240,132.54800415039062 132.54800415039062,240 0,240 C-132.54800415039062,240 -240,132.54800415039062 -240,0 C-240,-132.54800415039062 -132.54800415039062,-240 0,-240z"/></g></g><g transform="matrix(1,0,0,1,1287,916.4769897460938)" opacity="1" style="display: block;"><g opacity="1" transform="matrix(1,0,0,1,-118,-142)"><path fill="rgb(34,34,34)" fill-opacity="1" d=" M0,-240 C132.45599365234375,-240 240,-132.45599365234375 240,0 C240,132.45599365234375 132.45599365234375,240 0,240 C-132.45599365234375,240 -240,132.45599365234375 -240,0 C-240,-132.45599365234375 -132.45599365234375,-240 0,-240z"/></g></g><g transform="matrix(1,0,0,1,1869,882.7644653320312)" opacity="1" style="display: block;"><g opacity="1" transform="matrix(1,0,0,1,-118,-142)"><path fill="rgb(34,34,34)" fill-opacity="1" d=" M0,-240 C132.45599365234375,-240 240,-132.45599365234375 240,0 C240,132.45599365234375 132.45599365234375,240 0,240 C-132.45599365234375,240 -240,132.45599365234375 -240,0 C-240,-132.45599365234375 -132.45599365234375,-240 0,-240z"/></g></g><g transform="matrix(1,0,0,1,2453,1162.303466796875)" opacity="1" style="display: block;"><g opacity="1" transform="matrix(1,0,0,1,-118,-142)"><path fill="rgb(34,34,34)" fill-opacity="1" d=" M0,-240 C132.45599365234375,-240 240,-132.45599365234375 240,0 C240,132.45599365234375 132.45599365234375,240 0,240 C-132.45599365234375,240 -240,132.45599365234375 -240,0 C-240,-132.45599365234375 -132.45599365234375,-240 0,-240z"/></g></g><g transform="matrix(1,0,0,1,3037,1962.2049560546875)" opacity="1" style="display: block;"><g opacity="1" transform="matrix(1,0,0,1,-118,-142)"><path fill="rgb(34,34,34)" fill-opacity="1" d=" M0,-240 C132.45599365234375,-240 240,-132.45599365234375 240,0 C240,132.45599365234375 132.45599365234375,240 0,240 C-132.45599365234375,240 -240,132.45599365234375 -240,0 C-240,-132.45599365234375 -132.45599365234375,-240 0,-240z"/></g></g></g></svg>