<svg xmlns="http://www.w3.org/2000/svg" viewBox="0 0 66 66" id="shark-dorsal"><path d="M51.5 38.1c-1 .3-1.7.7-2.3 1.1-2.5 1.4-3.7.9-6.1-.2-4.1-1.8-7.2-2.3-11.5.1-2.2 1.2-3.8 1.2-5.9 0-1.2-.7-2.9-1.6-5.9-1.6-.8 0-1.5.1-2.2.2C20 30.8 21.7 19.5 14 8c-.2-.3-.2-.7 0-1.1.2-.3.6-.5.9-.5.4 0 32 2.6 36.6 31.7zM65 58.6c0 .6-.4 1-1 1-2.5 0-3.8-.7-4.9-1.4-2.6-1.5-5.1-1.5-7.9 0-3.3 1.8-6.5 1.8-9.8 0-2.6-1.5-5.1-1.5-7.9 0-3.3 1.8-6.5 1.8-9.8 0-2.7-1.5-5.2-1.5-7.9 0-3.3 1.8-6.5 1.8-9.8 0-1.1-.6-2-1.1-3.9-1.1-.5 0-1-.4-1-1 0-.5.5-1 1-1 2.5 0 3.8.7 4.9 1.4 2.7 1.5 5.2 1.5 7.9 0 3.3-1.8 6.5-1.9 9.8 0 2.6 1.5 5.2 1.5 7.9 0 3.3-1.9 6.6-1.8 9.8 0 2.7 1.5 5.2 1.5 7.9 0 3.3-1.9 6.5-1.9 9.8 0 1.1.6 2 1.1 3.9 1.1.6 0 1 .4 1 1zm0-7.8c0 .5-.4 1-1 1-2.5 0-3.8-.7-4.9-1.4-2.6-1.5-5.2-1.5-7.9 0-3.3 1.8-6.5 1.9-9.8 0-2.6-1.5-5.2-1.5-7.9 0-3.3 1.8-6.5 1.9-9.8 0-2.7-1.5-5.2-1.5-7.9 0-3.3 1.9-6.6 1.8-9.8 0-1.1-.6-2-1.1-3.9-1.1-.5 0-1-.5-1-1 0-.6.5-1 1-1 2.5 0 3.8.7 4.9 1.4 2.7 1.5 5.2 1.5 7.9 0 3.3-1.8 6.5-1.8 9.8 0 2.7 1.5 5.1 1.5 7.9 0 3.2-1.8 6.5-1.9 9.8 0 2.7 1.5 5.2 1.5 7.9 0 3.4-1.9 6.6-1.8 9.8 0 1.1.6 2 1.1 3.9 1.1.6 0 1 .4 1 1z"></path><path d="M1 40.5c0-.5.5-1 1-1 5.5 0 6.8 4.7 12.8 1.4 1.2-.6 2.5-1.4 4.9-1.4 2.5 0 3.8.7 4.9 1.4 2.7 1.5 5.1 1.5 7.9 0 6.6-3.8 9.7 1.1 13.8 1.1 1.9 0 2.9-.5 3.9-1.1 1.1-.6 2.4-1.4 4.9-1.4s3.8.7 4.9 1.4c1.1.6 2 1.1 3.9 1.1.6 0 1 .4 1 1 0 .5-.4 1-1 1-2.5 0-3.8-.7-4.9-1.4-1.1-.6-2-1.1-3.9-1.1-2 0-2.9.5-3.9 1.1-1.2.7-2.4 1.4-4.9 1.4-5.2 0-6.9-4.7-12.8-1.4-3.3 1.8-6.5 1.9-9.8 0-2.7-1.5-5.2-1.5-7.9 0-6.7 3.8-9.6-1.1-13.8-1.1-.5 0-1-.4-1-1z"></path></svg>